<svg width="487" height="100" viewBox="0 0 487 100" fill="none" xmlns="http://www.w3.org/2000/svg">
<path d="M148.062 68.25C146.375 70.2708 143.99 71.8438 140.906 72.9688C137.823 74.0729 134.406 74.625 130.656 74.625C126.719 74.625 123.26 73.7708 120.281 72.0625C117.323 70.3333 115.031 67.8333 113.406 64.5625C111.802 61.2917 110.979 57.4479 110.938 53.0312V49.9375C110.938 45.3958 111.698 41.4688 113.219 38.1562C114.76 34.8229 116.969 32.2812 119.844 30.5312C122.74 28.7604 126.125 27.875 130 27.875C135.396 27.875 139.615 29.1667 142.656 31.75C145.698 34.3125 147.5 38.0521 148.062 42.9688H138.938C138.521 40.3646 137.594 38.4583 136.156 37.25C134.74 36.0417 132.781 35.4375 130.281 35.4375C127.094 35.4375 124.667 36.6354 123 39.0312C121.333 41.4271 120.49 44.9896 120.469 49.7188V52.625C120.469 57.3958 121.375 61 123.188 63.4375C125 65.875 127.656 67.0938 131.156 67.0938C134.677 67.0938 137.188 66.3438 138.688 64.8438V57H130.156V50.0938H148.062V68.25ZM171.375 49L180.844 28.5H191.094L176.156 57.5V74H166.625V57.5L151.688 28.5H161.969L171.375 49ZM207.5 28.5L219.188 61.5L230.812 28.5H243.125V74H233.719V61.5625L234.656 40.0938L222.375 74H215.938L203.688 40.125L204.625 61.5625V74H195.25V28.5H207.5ZM290.844 62.0625C290.844 60.2917 290.219 58.9375 288.969 58C287.719 57.0417 285.469 56.0417 282.219 55C278.969 53.9375 276.396 52.8958 274.5 51.875C269.333 49.0833 266.75 45.3229 266.75 40.5938C266.75 38.1354 267.438 35.9479 268.812 34.0312C270.208 32.0938 272.198 30.5833 274.781 29.5C277.385 28.4167 280.302 27.875 283.531 27.875C286.781 27.875 289.677 28.4688 292.219 29.6562C294.76 30.8229 296.729 32.4792 298.125 34.625C299.542 36.7708 300.25 39.2083 300.25 41.9375H290.875C290.875 39.8542 290.219 38.2396 288.906 37.0938C287.594 35.9271 285.75 35.3438 283.375 35.3438C281.083 35.3438 279.302 35.8333 278.031 36.8125C276.76 37.7708 276.125 39.0417 276.125 40.625C276.125 42.1042 276.865 43.3438 278.344 44.3438C279.844 45.3438 282.042 46.2812 284.938 47.1562C290.271 48.7604 294.156 50.75 296.594 53.125C299.031 55.5 300.25 58.4583 300.25 62C300.25 65.9375 298.76 69.0312 295.781 71.2812C292.802 73.5104 288.792 74.625 283.75 74.625C280.25 74.625 277.062 73.9896 274.188 72.7188C271.312 71.4271 269.115 69.6667 267.594 67.4375C266.094 65.2083 265.344 62.625 265.344 59.6875H274.75C274.75 64.7083 277.75 67.2188 283.75 67.2188C285.979 67.2188 287.719 66.7708 288.969 65.875C290.219 64.9583 290.844 63.6875 290.844 62.0625ZM316 57.9688V74H306.625V28.5H324.375C327.792 28.5 330.792 29.125 333.375 30.375C335.979 31.625 337.979 33.4062 339.375 35.7188C340.771 38.0104 341.469 40.625 341.469 43.5625C341.469 48.0208 339.938 51.5417 336.875 54.125C333.833 56.6875 329.615 57.9688 324.219 57.9688H316ZM316 50.375H324.375C326.854 50.375 328.74 49.7917 330.031 48.625C331.344 47.4583 332 45.7917 332 43.625C332 41.3958 331.344 39.5938 330.031 38.2188C328.719 36.8438 326.906 36.1354 324.594 36.0938H316V50.375ZM385.312 52.2812C385.312 56.7604 384.521 60.6875 382.938 64.0625C381.354 67.4375 379.083 70.0417 376.125 71.875C373.188 73.7083 369.812 74.625 366 74.625C362.229 74.625 358.865 73.7188 355.906 71.9062C352.948 70.0938 350.656 67.5104 349.031 64.1562C347.406 60.7812 346.583 56.9062 346.562 52.5312V50.2812C346.562 45.8021 347.365 41.8646 348.969 38.4688C350.594 35.0521 352.875 32.4375 355.812 30.625C358.771 28.7917 362.146 27.875 365.938 27.875C369.729 27.875 373.094 28.7917 376.031 30.625C378.99 32.4375 381.271 35.0521 382.875 38.4688C384.5 41.8646 385.312 45.7917 385.312 50.25V52.2812ZM375.812 50.2188C375.812 45.4479 374.958 41.8229 373.25 39.3438C371.542 36.8646 369.104 35.625 365.938 35.625C362.792 35.625 360.365 36.8542 358.656 39.3125C356.948 41.75 356.083 45.3333 356.062 50.0625V52.2812C356.062 56.9271 356.917 60.5312 358.625 63.0938C360.333 65.6562 362.792 66.9375 366 66.9375C369.146 66.9375 371.562 65.7083 373.25 63.25C374.938 60.7708 375.792 57.1667 375.812 52.4375V50.2188ZM408.969 57.3438H401.5V74H392.125V28.5H409.031C414.406 28.5 418.552 29.6979 421.469 32.0938C424.385 34.4896 425.844 37.875 425.844 42.25C425.844 45.3542 425.167 47.9479 423.812 50.0312C422.479 52.0938 420.448 53.7396 417.719 54.9688L427.562 73.5625V74H417.5L408.969 57.3438ZM401.5 49.75H409.062C411.417 49.75 413.24 49.1562 414.531 47.9688C415.823 46.7604 416.469 45.1042 416.469 43C416.469 40.8542 415.854 39.1667 414.625 37.9375C413.417 36.7083 411.552 36.0938 409.031 36.0938H401.5V49.75ZM465.688 36.0938H451.75V74H442.375V36.0938H428.625V28.5H465.688V36.0938Z" fill="#FFFDFD"/>
<path d="M57.5 10C36.8213 10 20 27.9464 20 50C20 72.0536 36.8213 90 57.5 90C78.1787 90 95 72.0536 95 50C95 27.9464 78.1787 10 57.5 10ZM57.5 86.1892C38.7916 86.1892 23.5726 69.9531 23.5726 50C23.5726 30.0469 38.7916 13.8108 57.5 13.8108C76.2084 13.8108 91.4274 30.0469 91.4274 50C91.4274 69.9531 76.2084 86.1892 57.5 86.1892Z" fill="white"/>
<path d="M67.7655 46.1892H47.2347V53.8108H67.7655V46.1892Z" fill="white"/>
<path d="M33.3952 44.0452V44.8194C33.1266 44.6442 32.8321 44.5244 32.4992 44.5244C31.5129 44.5244 30.7152 45.3766 30.7152 46.4269V53.5728C30.7152 54.6232 31.5129 55.4754 32.4992 55.4754C32.8321 55.4754 33.1266 55.3555 33.3952 55.1804V55.9545C33.3952 57.8956 34.76 59.479 36.5195 59.7148V40.2849C34.76 40.5207 33.3952 42.1041 33.3952 44.0452Z" fill="white"/>
<path d="M82.5008 44.5244C82.1679 44.5244 81.8734 44.6442 81.605 44.8194V44.0452C81.605 42.1041 80.24 40.5207 78.4808 40.2849V59.7154C80.2403 59.4793 81.605 57.8961 81.605 55.9551V55.1809C81.8737 55.3561 82.1682 55.4759 82.5008 55.4759C83.4871 55.4759 84.2847 54.6237 84.2847 53.5733V46.4275C84.2847 45.3766 83.4871 44.5244 82.5008 44.5244Z" fill="white"/>
<path d="M41.8758 34.29C39.9055 34.29 38.3058 35.9964 38.3058 38.1005V61.8992C38.3058 64.0034 39.9058 65.7098 41.8758 65.7098C43.8484 65.7098 45.4484 64.0034 45.4484 61.8992V38.1005C45.4484 35.9964 43.8484 34.29 41.8758 34.29Z" fill="white"/>
<path d="M73.1242 34.29C71.1516 34.29 69.5516 35.9964 69.5516 38.1005V61.8992C69.5516 64.0034 71.1516 65.7098 73.1242 65.7098C75.0945 65.7098 76.6942 64.0034 76.6942 61.8992V38.1005C76.6942 35.9964 75.0945 34.29 73.1242 34.29Z" fill="white"/>
</svg>
