<svg width="80" height="80" viewBox="0 0 80 80" fill="none" xmlns="http://www.w3.org/2000/svg">
<path d="M40.0975 0C18.4847 0 0.903488 17.9464 0.903488 40C0.903488 62.0536 18.4847 80 40.0975 80C61.7104 80 79.2916 62.0536 79.2916 40C79.2916 17.9464 61.7104 0 40.0975 0ZM40.0975 76.1892C20.544 76.1892 4.63748 59.9531 4.63748 40C4.63748 20.0469 20.544 3.8108 40.0975 3.8108C59.6511 3.8108 75.5576 20.0469 75.5576 40C75.5576 59.9531 59.6511 76.1892 40.0975 76.1892Z" fill="#1B1919"/>
<path d="M50.8268 36.1892H29.3685V43.8108H50.8268V36.1892Z" fill="#1B1919"/>
<path d="M14.9038 34.0452V34.8194C14.6231 34.6442 14.3153 34.5244 13.9673 34.5244C12.9365 34.5244 12.1028 35.3766 12.1028 36.4269V43.5728C12.1028 44.6232 12.9365 45.4754 13.9673 45.4754C14.3153 45.4754 14.6231 45.3555 14.9038 45.1804V45.9545C14.9038 47.8956 16.3303 49.479 18.1693 49.7148V30.2849C16.3303 30.5207 14.9038 32.1041 14.9038 34.0452Z" fill="#1B1919"/>
<path d="M66.2277 34.5244C65.8798 34.5244 65.572 34.6442 65.2915 34.8194V34.0452C65.2915 32.1041 63.8648 30.5207 62.0261 30.2849V49.7154C63.8651 49.4793 65.2915 47.8961 65.2915 45.9551V45.1809C65.5723 45.3561 65.8801 45.4759 66.2277 45.4759C67.2586 45.4759 68.0922 44.6237 68.0922 43.5733V36.4275C68.0922 35.3766 67.2586 34.5244 66.2277 34.5244Z" fill="#1B1919"/>
<path d="M23.7675 24.29C21.7082 24.29 20.0363 25.9964 20.0363 28.1005V51.8992C20.0363 54.0034 21.7085 55.7098 23.7675 55.7098C25.8292 55.7098 27.5015 54.0034 27.5015 51.8992V28.1005C27.5015 25.9964 25.8292 24.29 23.7675 24.29Z" fill="#1B1919"/>
<path d="M56.4275 24.29C54.3658 24.29 52.6936 25.9964 52.6936 28.1005V51.8992C52.6936 54.0034 54.3658 55.7098 56.4275 55.7098C58.4869 55.7098 60.1588 54.0034 60.1588 51.8992V28.1005C60.1588 25.9964 58.4869 24.29 56.4275 24.29Z" fill="#1B1919"/>
</svg>
